M48
; DRILL file {KiCad 7.0.5} date Sun Jun 11 20:56:01 2023
; FORMAT={-:-/ absolute / inch / decimal}
; #@! TF.CreationDate,2023-06-11T20:56:01-05:00
; #@! TF.GenerationSoftware,Kicad,Pcbnew,7.0.5
; #@! TF.FileFunction,Plated,1,2,PTH
FMAT,2
INCH
; #@! TA.AperFunction,Plated,PTH,ViaDrill
T1C0.0118
; #@! TA.AperFunction,Plated,PTH,ComponentDrill
T2C0.0354
; #@! TA.AperFunction,Plated,PTH,ComponentDrill
T3C0.0394
; #@! TA.AperFunction,Plated,PTH,ComponentDrill
T4C0.0433
%
G90
G05
T1
X4.0354Y-3.1496
X4.0354Y-3.7402
X4.0354Y-4.4291
X4.0354Y-5.0197
X4.0354Y-5.6102
X4.2126Y-4.3701
X4.2126Y-4.4685
X4.2854Y-4.7146
X4.2913Y-4.3701
X4.3504Y-4.3701
X4.3563Y-4.4705
X4.4035Y-3.7933
X4.4035Y-4.6673
X4.4291Y-5.8071
X4.4488Y-5.0197
X4.4488Y-5.4331
X4.4882Y-4.0551
X4.6063Y-5.4331
X4.7244Y-4.0551
X4.7461Y-3.5846
X4.7815Y-4.061
X4.8031Y-4.5669
X4.8031Y-4.7638
X5.0098Y-5.3996
X5.0571Y-5.3051
X5.1181Y-4.0551
X5.1358Y-3.5846
X5.1358Y-4.9114
X5.1969Y-4.5669
X5.1969Y-4.7638
X5.1969Y-4.9606
X5.1969Y-5.2756
X5.1969Y-5.3937
X5.2067Y-3.1535
X5.2756Y-4.0551
X5.3543Y-3.0709
X5.4134Y-5.8071
X5.5118Y-2.9134
X5.5295Y-3.5846
X5.5512Y-4.0551
X5.5885Y-3.5086
X5.5906Y-3.0709
X5.5906Y-3.4252
X5.5906Y-4.5669
X5.5906Y-4.7638
X5.6201Y-2.9941
X5.6693Y-3.0709
X5.6693Y-3.4252
X5.7087Y-4.0551
X5.7283Y-4.9606
X5.7283Y-5.3937
X5.8661Y-3.0709
X5.9055Y-4.9606
X5.9075Y-2.9606
X5.9272Y-3.5846
X5.9449Y-3.4252
X6.1024Y-3.4252
X6.1024Y-3.622
X6.1024Y-3.8189
X6.1024Y-4.0551
X6.1024Y-4.4488
X6.1024Y-4.5669
X6.1417Y-4.9606
X6.1417Y-5.1969
X6.1417Y-5.3937
X6.1811Y-5.276
X6.2047Y-5.2524
X6.2598Y-5.1969
X6.2598Y-5.3937
X6.2992Y-2.9134
X6.2992Y-3.4252
X6.2992Y-3.622
X6.2992Y-3.8189
X6.2992Y-4.0551
X6.2992Y-4.4488
X6.2992Y-4.5669
X6.3937Y-4.4807
X6.3957Y-3.3366
X6.3976Y-5.8071
X6.4567Y-3.4252
X6.4803Y-5.3941
X6.4961Y-5.1969
X6.5354Y-3.8425
X6.5827Y-4.5122
X6.6142Y-4.4488
X6.6535Y-3.4252
X6.6594Y-3.7874
X6.6614Y-3.6102
X6.6614Y-4.0591
X6.6614Y-4.0906
X6.6614Y-5.3547
X6.6614Y-3.6693
X6.6614Y-3.7283
X6.685Y-4.1496
X6.685Y-4.3862
X6.685Y-4.5201
X6.7638Y-3.3366
X6.7717Y-4.1339
X6.7717Y-5.1969
X6.7795Y-3.5197
X6.7795Y-3.622
X6.7795Y-3.8425
X6.813Y-3.9665
X6.8243Y-4.2306
X6.8366Y-3.9902
X6.8524Y-4.2028
X6.8681Y-4.0925
X6.8701Y-4.2288
X6.8819Y-3.2992
X6.8819Y-3.8425
X6.9154Y-4.2461
X6.9291Y-4.2913
X6.9291Y-4.4488
X6.9291Y-4.6457
X6.9291Y-5.0787
X6.9685Y-5.2756
X6.9705Y-3.9665
X7.031Y-4.6068
X7.031Y-5.4129
X7.0472Y-4.2913
X7.0728Y-3.5807
X7.0768Y-4.1401
X7.0787Y-4.4558
X7.0866Y-2.9134
X7.0866Y-5.3543
X7.1063Y-4.1393
X7.1209Y-3.3378
X7.126Y-3.7008
X7.126Y-3.8189
X7.1417Y-5.1894
X7.1594Y-5.3839
X7.1594Y-5.4469
X7.1614Y-4.1398
X7.1841Y-5.0522
X7.1845Y-5.0832
X7.1909Y-4.1476
X7.1929Y-4.874
X7.2047Y-4.2913
X7.2047Y-4.6457
X7.2047Y-4.7244
X7.2776Y-3.935
X7.2776Y-4.061
X7.281Y-4.3902
X7.2835Y-4.8425
X7.2835Y-5.0
X7.2835Y-5.1181
X7.3012Y-3.7933
X7.3563Y-4.376
X7.3622Y-3.8189
X7.3661Y-3.5197
X7.3661Y-3.5512
X7.3661Y-3.5827
X7.372Y-4.2657
X7.372Y-4.3209
X7.3799Y-5.4154
X7.3819Y-5.8071
X7.4114Y-4.5571
X7.4193Y-4.0295
X7.437Y-5.1657
X7.4429Y-4.3524
X7.4439Y-4.307
X7.4508Y-4.8583
X7.4665Y-4.2854
X7.4665Y-4.3299
X7.5039Y-4.6772
X7.5062Y-5.0846
X7.5197Y-4.1417
X7.5295Y-4.4626
X7.531Y-4.0438
X7.5354Y-4.6063
X7.5531Y-5.0846
X7.5531Y-4.4843
X7.5591Y-5.0079
X7.5709Y-3.5276
X7.5768Y-4.0295
X7.5768Y-5.4154
X7.5925Y-4.8583
X7.6306Y-5.1638
X7.6319Y-3.998
X7.6378Y-4.8584
X7.6378Y-3.8976
X7.6594Y-4.881
X7.6602Y-5.1638
X7.6654Y-3.5236
X7.6811Y-4.856
X7.6811Y-3.0217
X7.6882Y-4.9902
X7.7028Y-4.8799
X7.7087Y-5.0945
X7.7184Y-5.0039
X7.7185Y-4.0453
X7.7185Y-4.25
X7.7185Y-4.3287
X7.7185Y-4.4075
X7.7185Y-4.4862
X7.7244Y-4.8543
X7.7323Y-5.378
X7.7323Y-5.4488
X7.7402Y-5.0787
X7.7461Y-4.8799
X7.7628Y-4.0462
X7.7677Y-4.8543
X7.7677Y-5.0039
X7.7972Y-4.25
X7.7972Y-4.3287
X7.7972Y-4.4075
X7.7972Y-4.4862
X7.8061Y-4.0453
X7.8071Y-4.7618
X7.8287Y-4.7916
X7.8346Y-3.7008
X7.8346Y-3.8189
X7.8386Y-5.0984
X7.8386Y-5.1279
X7.8524Y-4.7618
X7.8524Y-4.9902
X7.874Y-2.9134
X7.876Y-4.25
X7.876Y-4.3287
X7.876Y-4.4075
X7.876Y-4.4862
X7.8799Y-2.9961
X7.8839Y-4.7461
X7.8976Y-3.8425
X7.8976Y-3.9724
X7.9291Y-5.378
X7.9291Y-5.4488
X7.935Y-3.8071
X7.9547Y-4.25
X7.9547Y-4.3287
X7.9547Y-4.4075
X7.9547Y-4.4862
X7.9626Y-4.7854
X7.9685Y-3.8425
X7.9685Y-3.9724
X7.9783Y-2.998
X7.9911Y-4.7619
X8.0059Y-3.815
X8.0118Y-4.8819
X8.0177Y-4.7382
X8.0315Y-3.7008
X8.0394Y-3.8425
X8.0394Y-3.9744
X8.0512Y-4.6457
X8.0728Y-3.8169
X8.0739Y-5.1555
X8.0965Y-5.1319
X8.1101Y-3.949
X8.1102Y-3.7008
X8.1102Y-3.8386
X8.1299Y-3.9272
X8.1339Y-3.748
X8.1535Y-3.9705
X8.1594Y-3.4941
X8.1594Y-5.0059
X8.1693Y-4.1142
X8.1831Y-4.2657
X8.185Y-3.9724
X8.1911Y-4.4369
X8.1916Y-4.4823
X8.1918Y-4.3357
X8.2087Y-4.8819
X8.2106Y-3.8091
X8.2146Y-4.2657
X8.2146Y-4.3602
X8.2188Y-4.4589
X8.2259Y-4.5606
X8.2323Y-3.5571
X8.2382Y-4.061
X8.2382Y-4.3366
X8.2559Y-3.4941
X8.2677Y-5.8071
X8.2842Y-4.5023
X8.2854Y-4.4094
X8.2874Y-3.8386
X8.2874Y-3.9961
X8.2874Y-4.252
X8.3012Y-4.9606
X8.3091Y-4.6043
X8.3248Y-4.2953
X8.3248Y-3.0217
X8.3248Y-4.4311
X8.3248Y-4.4783
X8.3248Y-4.5492
X8.3307Y-3.5591
X8.3799Y-3.4941
X8.3878Y-4.6043
X8.3878Y-4.8799
X8.4193Y-5.061
X8.4291Y-3.5335
X8.437Y-5.126
X8.4665Y-4.3839
X8.4744Y-3.8957
X8.5039Y-3.8189
X8.5039Y-4.1732
X8.5039Y-4.6063
X8.5039Y-4.8819
X8.5276Y-5.2362
X8.5295Y-5.4154
X8.6004Y-5.0846
X8.6398Y-5.0059
X8.64Y-4.9587
X8.6614Y-2.9134
X8.6634Y-4.9823
X8.8583Y-3.1496
X8.8583Y-3.5433
X8.8583Y-4.2323
X8.8583Y-4.8228
X8.8583Y-5.4134
T2
X4.5571Y-3.5827
X4.5571Y-4.2126
X4.6571Y-3.5827
X4.6571Y-4.2126
X4.9508Y-3.5827
X4.9508Y-4.2126
X5.0508Y-3.5827
X5.0508Y-4.2126
X5.3445Y-3.5827
X5.3445Y-4.2126
X5.4445Y-3.5827
X5.4445Y-4.2126
X5.7382Y-3.5827
X5.7382Y-4.2126
X5.8382Y-3.5827
X5.8382Y-4.2126
T3
X4.3185Y-3.6894
X4.3185Y-3.7894
X4.3185Y-3.8894
X4.3185Y-3.9894
X4.3185Y-4.0894
X4.3185Y-4.1894
X4.3185Y-4.2894
X4.7067Y-5.3917
X4.8051Y-5.3917
X4.9035Y-5.3917
X6.0043Y-3.1134
X6.1043Y-3.1134
X6.2043Y-3.1134
X6.3787Y-3.1134
X6.4787Y-3.1134
X6.4795Y-5.615
X6.5787Y-3.1134
X6.5795Y-5.615
X6.6787Y-3.1134
X6.6795Y-5.615
X6.8787Y-3.1134
X6.8787Y-3.2134
X6.8795Y-5.515
X6.8795Y-5.615
X6.9209Y-3.4134
X6.9787Y-3.1134
X6.9787Y-3.2134
X6.9795Y-5.515
X6.9795Y-5.615
X7.0209Y-3.4134
X7.0787Y-3.1134
X7.0787Y-3.2134
X7.0795Y-5.515
X7.0795Y-5.615
X7.1209Y-3.4134
X7.1787Y-3.1134
X7.1787Y-3.2134
X7.1795Y-5.515
X7.1795Y-5.615
X7.2209Y-3.4134
X7.2787Y-3.1134
X7.2787Y-3.2134
X7.2795Y-5.515
X7.2795Y-5.615
X7.2799Y-5.313
X7.3209Y-3.4134
X7.3787Y-3.1134
X7.3787Y-3.2134
X7.3795Y-5.515
X7.3795Y-5.615
X7.3799Y-5.313
X7.4209Y-3.4134
X7.4787Y-3.1134
X7.4787Y-3.2134
X7.4795Y-5.515
X7.4795Y-5.615
X7.4799Y-5.313
X7.5209Y-3.4134
X7.5787Y-3.1134
X7.5787Y-3.2134
X7.5795Y-5.515
X7.5795Y-5.615
X7.5799Y-5.313
X7.6209Y-3.4134
X7.6787Y-3.1134
X7.6787Y-3.2134
X7.6795Y-5.515
X7.6795Y-5.615
X7.6799Y-5.313
X7.7209Y-3.4134
X7.7787Y-3.1134
X7.7787Y-3.2134
X7.7795Y-5.515
X7.7795Y-5.615
X7.7799Y-5.313
X7.8209Y-3.4134
X7.8787Y-3.1134
X7.8787Y-3.2134
X7.8795Y-5.515
X7.8795Y-5.615
X7.8799Y-5.313
X7.9787Y-3.1134
X7.9787Y-3.2134
X7.9795Y-3.4134
X7.9795Y-5.515
X7.9795Y-5.615
X7.9799Y-5.313
X8.0787Y-3.1134
X8.0787Y-3.2134
X8.0795Y-3.4134
X8.0795Y-5.515
X8.0795Y-5.615
X8.1787Y-3.1134
X8.1787Y-3.2134
X8.1791Y-5.313
X8.1795Y-3.4134
X8.1795Y-5.515
X8.1795Y-5.615
X8.2787Y-3.1134
X8.2787Y-3.2134
X8.2791Y-5.313
X8.2795Y-3.4134
X8.2795Y-5.515
X8.2795Y-5.615
X8.3787Y-3.1134
X8.3787Y-3.2134
X8.3791Y-5.313
X8.3795Y-3.4134
X8.3795Y-5.515
X8.3795Y-5.615
X8.4787Y-3.1134
X8.4787Y-3.2134
X8.4791Y-5.313
X8.4795Y-3.4134
X8.4795Y-5.515
X8.4795Y-5.615
X8.5787Y-3.1134
X8.5787Y-3.2134
X8.5791Y-5.313
X8.5795Y-3.4134
X8.5795Y-5.515
X8.5795Y-5.615
X8.6185Y-3.6894
X8.6185Y-3.7894
X8.6185Y-3.8894
X8.6185Y-3.9894
X8.6185Y-4.0894
X8.6185Y-4.1894
X8.6185Y-4.2894
X8.6787Y-3.1134
X8.6787Y-3.2134
X8.6791Y-5.313
X8.6795Y-3.4134
X8.6795Y-5.515
X8.6795Y-5.615
T4
X4.4803Y-3.7283
X4.4803Y-3.9055
X4.4803Y-4.3583
X4.4803Y-4.5354
X4.7362Y-3.7283
X4.7362Y-3.9055
X4.7362Y-4.3583
X4.7362Y-4.5354
X4.874Y-3.7283
X4.874Y-3.9055
X4.874Y-4.3583
X4.874Y-4.5354
X5.1299Y-3.7283
X5.1299Y-3.9055
X5.1299Y-4.3583
X5.1299Y-4.5354
X5.1378Y-5.0197
X5.1378Y-5.1968
X5.2677Y-3.7283
X5.2677Y-3.9055
X5.2677Y-4.3583
X5.2677Y-4.5354
X5.3937Y-5.0197
X5.3937Y-5.1968
X5.5236Y-3.7283
X5.5236Y-3.9055
X5.5236Y-4.3583
X5.5236Y-4.5354
X5.5315Y-5.0197
X5.5315Y-5.1968
X5.6614Y-3.7283
X5.6614Y-3.9055
X5.6614Y-4.3583
X5.6614Y-4.5354
X5.7874Y-5.0197
X5.7874Y-5.1968
X5.9173Y-3.7283
X5.9173Y-3.9055
X5.9173Y-4.3583
X5.9173Y-4.5354
T0
M30
