G04 #@! TF.GenerationSoftware,KiCad,Pcbnew,7.0.5*
G04 #@! TF.CreationDate,2023-06-11T20:55:59-05:00*
G04 #@! TF.ProjectId,NTS-1_CustomPanel,4e54532d-315f-4437-9573-746f6d50616e,C*
G04 #@! TF.SameCoordinates,Original*
G04 #@! TF.FileFunction,Soldermask,Bot*
G04 #@! TF.FilePolarity,Negative*
%FSLAX46Y46*%
G04 Gerber Fmt 4.6, Leading zero omitted, Abs format (unit mm)*
G04 Created by KiCad (PCBNEW 7.0.5) date 2023-06-11 20:55:59*
%MOMM*%
%LPD*%
G01*
G04 APERTURE LIST*
G04 Aperture macros list*
%AMRoundRect*
0 Rectangle with rounded corners*
0 $1 Rounding radius*
0 $2 $3 $4 $5 $6 $7 $8 $9 X,Y pos of 4 corners*
0 Add a 4 corners polygon primitive as box body*
4,1,4,$2,$3,$4,$5,$6,$7,$8,$9,$2,$3,0*
0 Add four circle primitives for the rounded corners*
1,1,$1+$1,$2,$3*
1,1,$1+$1,$4,$5*
1,1,$1+$1,$6,$7*
1,1,$1+$1,$8,$9*
0 Add four rect primitives between the rounded corners*
20,1,$1+$1,$2,$3,$4,$5,0*
20,1,$1+$1,$4,$5,$6,$7,0*
20,1,$1+$1,$6,$7,$8,$9,0*
20,1,$1+$1,$8,$9,$2,$3,0*%
G04 Aperture macros list end*
%ADD10RoundRect,0.050000X-0.850000X0.850000X-0.850000X-0.850000X0.850000X-0.850000X0.850000X0.850000X0*%
%ADD11O,1.800000X1.800000*%
%ADD12RoundRect,0.050000X0.850000X-0.850000X0.850000X0.850000X-0.850000X0.850000X-0.850000X-0.850000X0*%
%ADD13C,2.100000*%
%ADD14C,4.100000*%
%ADD15C,1.900000*%
%ADD16RoundRect,0.050000X-0.900000X-0.900000X0.900000X-0.900000X0.900000X0.900000X-0.900000X0.900000X0*%
%ADD17O,3.100000X3.750000*%
%ADD18RoundRect,0.050000X-0.850000X-0.850000X0.850000X-0.850000X0.850000X0.850000X-0.850000X0.850000X0*%
G04 APERTURE END LIST*
D10*
X220460000Y-86700000D03*
D11*
X217920000Y-86700000D03*
X215380000Y-86700000D03*
X212840000Y-86700000D03*
X210300000Y-86700000D03*
X207760000Y-86700000D03*
X205220000Y-86700000D03*
X202680000Y-86700000D03*
D12*
X184910000Y-134950000D03*
D11*
X187450000Y-134950000D03*
X189990000Y-134950000D03*
X192530000Y-134950000D03*
X195070000Y-134950000D03*
X197610000Y-134950000D03*
X200150000Y-134950000D03*
X202690000Y-134950000D03*
D12*
X174740000Y-140080000D03*
D11*
X174740000Y-142620000D03*
X177280000Y-140080000D03*
X177280000Y-142620000D03*
X179820000Y-140080000D03*
X179820000Y-142620000D03*
X182360000Y-140080000D03*
X182360000Y-142620000D03*
X184900000Y-140080000D03*
X184900000Y-142620000D03*
X187440000Y-140080000D03*
X187440000Y-142620000D03*
X189980000Y-140080000D03*
X189980000Y-142620000D03*
X192520000Y-140080000D03*
X192520000Y-142620000D03*
X195060000Y-140080000D03*
X195060000Y-142620000D03*
X197600000Y-140080000D03*
X197600000Y-142620000D03*
X200140000Y-140080000D03*
X200140000Y-142620000D03*
X202680000Y-140080000D03*
X202680000Y-142620000D03*
X205220000Y-140080000D03*
X205220000Y-142620000D03*
X207760000Y-140080000D03*
X207760000Y-142620000D03*
X210300000Y-140080000D03*
X210300000Y-142620000D03*
X212840000Y-140080000D03*
X212840000Y-142620000D03*
X215380000Y-140080000D03*
X215380000Y-142620000D03*
X217920000Y-140080000D03*
X217920000Y-142620000D03*
X220460000Y-140080000D03*
X220460000Y-142620000D03*
D12*
X164580000Y-142620000D03*
D11*
X167120000Y-142620000D03*
X169660000Y-142620000D03*
D13*
X136999480Y-131999990D03*
X130499480Y-131999990D03*
X130499480Y-127499990D03*
X136999480Y-127499990D03*
D14*
X126450000Y-129950000D03*
X117650000Y-129950000D03*
D15*
X124550000Y-136950000D03*
X122050000Y-136950000D03*
X119550000Y-136950000D03*
D12*
X207750000Y-134950000D03*
D11*
X210290000Y-134950000D03*
X212830000Y-134950000D03*
X215370000Y-134950000D03*
X217910000Y-134950000D03*
X220450000Y-134950000D03*
D16*
X125750000Y-90999990D03*
D15*
X128290000Y-90999990D03*
D16*
X135750000Y-90999990D03*
D15*
X138290000Y-90999990D03*
D16*
X125750000Y-107000000D03*
D15*
X128290000Y-107000000D03*
D16*
X135750000Y-107000000D03*
D15*
X138290000Y-107000000D03*
D13*
X113800000Y-99200000D03*
X120300000Y-99200000D03*
X113800000Y-94700000D03*
X120300000Y-94700000D03*
X130300000Y-99200000D03*
X123800000Y-99200000D03*
X123800000Y-94700000D03*
X130300000Y-94700000D03*
X140300000Y-99200000D03*
X133800000Y-99200000D03*
X140300000Y-94700000D03*
X133800000Y-94700000D03*
X143800000Y-99200000D03*
X150300000Y-99200000D03*
X143800000Y-94700000D03*
X150300000Y-94700000D03*
X113800000Y-115200000D03*
X120300000Y-115200000D03*
X120300000Y-110700000D03*
X113800000Y-110700000D03*
X123800000Y-115200000D03*
X130300000Y-115200000D03*
X130300000Y-110700000D03*
X123800000Y-110700000D03*
X133800000Y-115200000D03*
X140300000Y-115200000D03*
X133800000Y-110700000D03*
X140300000Y-110700000D03*
X143800000Y-115200000D03*
X150300000Y-115200000D03*
X143800000Y-110700000D03*
X150300000Y-110700000D03*
D16*
X145750000Y-107000000D03*
D15*
X148290000Y-107000000D03*
D16*
X115750000Y-90999990D03*
D15*
X118290000Y-90999990D03*
D16*
X115750000Y-107000000D03*
D15*
X118290000Y-107000000D03*
D16*
X145750000Y-90999990D03*
D15*
X148290000Y-90999990D03*
D17*
X103050000Y-146596000D03*
X225550000Y-146596000D03*
D10*
X169640000Y-79080000D03*
D11*
X167100000Y-79080000D03*
X164560000Y-79080000D03*
X162020000Y-79080000D03*
D10*
X198650000Y-86700000D03*
D11*
X196110000Y-86700000D03*
X193570000Y-86700000D03*
X191030000Y-86700000D03*
X188490000Y-86700000D03*
X185950000Y-86700000D03*
X183410000Y-86700000D03*
X180870000Y-86700000D03*
X178330000Y-86700000D03*
X175790000Y-86700000D03*
D10*
X157590000Y-79080000D03*
D11*
X155050000Y-79080000D03*
X152510000Y-79080000D03*
D12*
X174720000Y-79080000D03*
D11*
X174720000Y-81620000D03*
X177260000Y-79080000D03*
X177260000Y-81620000D03*
X179800000Y-79080000D03*
X179800000Y-81620000D03*
X182340000Y-79080000D03*
X182340000Y-81620000D03*
X184880000Y-79080000D03*
X184880000Y-81620000D03*
X187420000Y-79080000D03*
X187420000Y-81620000D03*
X189960000Y-79080000D03*
X189960000Y-81620000D03*
X192500000Y-79080000D03*
X192500000Y-81620000D03*
X195040000Y-79080000D03*
X195040000Y-81620000D03*
X197580000Y-79080000D03*
X197580000Y-81620000D03*
X200120000Y-79080000D03*
X200120000Y-81620000D03*
X202660000Y-79080000D03*
X202660000Y-81620000D03*
X205200000Y-79080000D03*
X205200000Y-81620000D03*
X207740000Y-79080000D03*
X207740000Y-81620000D03*
X210280000Y-79080000D03*
X210280000Y-81620000D03*
X212820000Y-79080000D03*
X212820000Y-81620000D03*
X215360000Y-79080000D03*
X215360000Y-81620000D03*
X217900000Y-79080000D03*
X217900000Y-81620000D03*
X220440000Y-79080000D03*
X220440000Y-81620000D03*
D13*
X146999480Y-131999990D03*
X140499480Y-131999990D03*
X140499480Y-127499990D03*
X146999480Y-127499990D03*
D17*
X225550000Y-75246000D03*
X103050000Y-75246000D03*
D18*
X218910000Y-108950000D03*
D11*
X218910000Y-106410000D03*
X218910000Y-103870000D03*
X218910000Y-101330000D03*
X218910000Y-98790000D03*
X218910000Y-96250000D03*
X218910000Y-93710000D03*
D18*
X109690000Y-108950000D03*
D11*
X109690000Y-106410000D03*
X109690000Y-103870000D03*
X109690000Y-101330000D03*
X109690000Y-98790000D03*
X109690000Y-96250000D03*
X109690000Y-93710000D03*
M02*
